<svg width="29" height="27" viewBox="0 0 29 27" fill="none" xmlns="http://www.w3.org/2000/svg">
<path fill-rule="evenodd" clip-rule="evenodd" d="M11.6882 3.8172C11.6882 4.33561 11.7915 4.82988 11.9787 5.28054C5.60809 6.28043 0.827957 10.4688 0.827957 15.4839C0.827957 16.834 1.1744 18.1242 1.80504 19.3084C1.79884 19.1634 1.7957 19.0175 1.7957 18.871C1.7957 13.3184 6.29692 8.8172 11.8495 8.8172C14.7289 8.8172 17.3256 10.0277 19.1585 11.9676C19.4723 11.1941 19.6452 10.3484 19.6452 9.46237C19.6452 9.168 19.6261 8.87809 19.5891 8.59381C21.8468 9.66173 23.4086 11.9603 23.4086 14.6237C23.4086 16.2248 22.8442 17.694 21.9035 18.8434C21.8963 16.1811 20.8544 13.7621 19.1586 11.9674C18.859 12.7058 18.431 13.3783 17.9022 13.9572C18.9921 15.2981 19.6454 17.0083 19.6454 18.871C19.6454 19.5115 19.5682 20.1339 19.4225 20.7296C20.3921 20.3033 21.2409 19.6528 21.9032 18.8438L21.9032 18.871C21.9032 21.333 21.0183 23.5883 19.5491 25.3361C25.0515 23.917 29 20.0418 29 15.4839C29 10.7593 24.7575 6.76835 18.9395 5.48589C18.3203 6.75786 17.0152 7.63441 15.5054 7.63441C13.9156 7.63441 12.5528 6.66255 11.9787 5.28054C12.9255 5.13194 13.9074 5.05376 14.914 5.05376C16.3128 5.05376 17.664 5.20474 18.9395 5.48589C19.1849 4.98179 19.3226 4.41557 19.3226 3.8172C19.3226 1.70902 17.6136 0 15.5054 0C13.3972 0 11.6882 1.70902 11.6882 3.8172ZM12.9785 16.129C14.9285 16.129 16.6829 15.2918 17.902 13.9573C16.4726 12.1988 14.2922 11.0753 11.8495 11.0753C7.54402 11.0753 4.05376 14.5655 4.05376 18.871C4.05376 23.1764 7.54402 26.6667 11.8495 26.6667C15.5144 26.6667 18.5886 24.1377 19.4222 20.7296C18.602 21.0902 17.6953 21.2903 16.7419 21.2903C13.3544 21.2903 10.557 18.7637 10.1313 15.4922C10.9948 15.9006 11.9599 16.129 12.9785 16.129Z" fill="white"/>
</svg>
