<svg width="95" height="18" viewBox="0 0 95 18" fill="none" xmlns="http://www.w3.org/2000/svg">
<path d="M37.2051 13H38.5176V5.67578H41.1719V4.54492H34.5449V5.67578H37.2051V13ZM43.1816 5.5C43.6152 5.5 43.9785 5.14258 43.9785 4.70898C43.9785 4.26953 43.6152 3.91211 43.1816 3.91211C42.7422 3.91211 42.3848 4.26953 42.3848 4.70898C42.3848 5.14258 42.7422 5.5 43.1816 5.5ZM42.543 13H43.8086V6.63672H42.543V13ZM45.6602 13H46.9316V9.0918C46.9316 8.25977 47.5 7.60352 48.2676 7.60352C49.0176 7.60352 49.4922 8.06055 49.4922 8.78711V13H50.7578V8.97461C50.7578 8.20703 51.291 7.60352 52.0996 7.60352C52.9316 7.60352 53.3301 8.03711 53.3301 8.91602V13H54.5957V8.61133C54.5957 7.28711 53.8457 6.51367 52.5625 6.51367C51.6777 6.51367 50.9453 6.96484 50.623 7.65039H50.5234C50.2422 6.96484 49.627 6.51367 48.7598 6.51367C47.9277 6.51367 47.3066 6.91797 47.0254 7.61523H46.9316V6.63672H45.6602V13ZM59.043 13.123C60.6719 13.123 61.5508 12.1855 61.7617 11.3477L61.7734 11.2949L60.5488 11.3008L60.5254 11.3477C60.373 11.6758 59.8867 12.0801 59.0723 12.0801C58.0234 12.0801 57.3555 11.3711 57.332 10.1523H61.8438V9.70703C61.8438 7.79688 60.7539 6.51367 58.9785 6.51367C57.2031 6.51367 56.0547 7.84375 56.0547 9.83008V9.83594C56.0547 11.8516 57.1797 13.123 59.043 13.123ZM58.9844 7.55664C59.8457 7.55664 60.4844 8.10742 60.584 9.24414H57.3496C57.4609 8.14844 58.1172 7.55664 58.9844 7.55664ZM66.5488 13H72.9004V11.8691H68.2188V11.7695L72.7891 5.44141V4.54492H66.6895V5.67578H71.1426V5.77539L66.5488 12.1035V13ZM77.1719 13.123C79.0352 13.123 80.1777 11.875 80.1777 9.82422V9.8125C80.1777 7.76172 79.0293 6.51367 77.1719 6.51367C75.3086 6.51367 74.1602 7.76758 74.1602 9.8125V9.82422C74.1602 11.875 75.3027 13.123 77.1719 13.123ZM77.1719 12.0625C76.0762 12.0625 75.4609 11.2363 75.4609 9.82422V9.8125C75.4609 8.40039 76.0762 7.57422 77.1719 7.57422C78.2617 7.57422 78.8828 8.40039 78.8828 9.8125V9.82422C78.8828 11.2305 78.2617 12.0625 77.1719 12.0625ZM81.6953 13H82.9668V9.26758C82.9668 8.24219 83.5469 7.60352 84.4785 7.60352C85.4102 7.60352 85.8496 8.125 85.8496 9.17969V13H87.1152V8.88086C87.1152 7.36328 86.3301 6.51367 84.9062 6.51367C83.9805 6.51367 83.3711 6.92383 83.0605 7.60352H82.9668V6.63672H81.6953V13ZM91.5625 13.123C93.1914 13.123 94.0703 12.1855 94.2812 11.3477L94.293 11.2949L93.0684 11.3008L93.0449 11.3477C92.8926 11.6758 92.4062 12.0801 91.5918 12.0801C90.543 12.0801 89.875 11.3711 89.8516 10.1523H94.3633V9.70703C94.3633 7.79688 93.2734 6.51367 91.498 6.51367C89.7227 6.51367 88.5742 7.84375 88.5742 9.83008V9.83594C88.5742 11.8516 89.6992 13.123 91.5625 13.123ZM91.5039 7.55664C92.3652 7.55664 93.0039 8.10742 93.1035 9.24414H89.8691C89.9805 8.14844 90.6367 7.55664 91.5039 7.55664Z" fill="#7C8292"/>
<rect y="7" width="28" height="4" rx="2" fill="#DBDCDF"/>
<g filter="url(#filter0_i)">
<rect width="18" height="18" rx="9" fill="white"/>
</g>
<path d="M4 8.93878L7.3125 12L14 6" stroke="white" stroke-width="1.5"/>
<defs>
<filter id="filter0_i" x="0" y="0" width="18" height="18" filterUnits="userSpaceOnUse" color-interpolation-filters="sRGB">
<feFlood flood-opacity="0" result="BackgroundImageFix"/>
<feBlend mode="normal" in="SourceGraphic" in2="BackgroundImageFix" result="shape"/>
<feColorMatrix in="SourceAlpha" type="matrix" values="0 0 0 0 0 0 0 0 0 0 0 0 0 0 0 0 0 0 127 0" result="hardAlpha"/>
<feMorphology radius="2" operator="erode" in="SourceAlpha" result="effect1_innerShadow"/>
<feOffset/>
<feComposite in2="hardAlpha" operator="arithmetic" k2="-1" k3="1"/>
<feColorMatrix type="matrix" values="0 0 0 0 0.858824 0 0 0 0 0.862745 0 0 0 0 0.87451 0 0 0 1 0"/>
<feBlend mode="normal" in2="shape" result="effect1_innerShadow"/>
</filter>
</defs>
</svg>
