<?xml version="1.0" standalone="no"?>
<!DOCTYPE svg PUBLIC "-//W3C//DTD SVG 1.1//EN" "http://www.w3.org/Graphics/SVG/1.1/DTD/svg11.dtd" >
<svg xmlns="http://www.w3.org/2000/svg">
<metadata>Generated by IcoMoon</metadata>
<defs>
<font id="icomoon" horiz-adv-x="1024">
<font-face units-per-em="1024" ascent="960" descent="-64" />
<missing-glyph horiz-adv-x="1024" />
<glyph unicode="&#x20;" horiz-adv-x="512" d="" />
<glyph unicode="&#xe900;" d="M870.733 811.107c-95.855 95.856-223.095 148.649-358.852 148.893-279.783 0-507.258-227.718-507.501-507.255 0-89.532 23.356-176.627 67.634-253.751l-72.014-262.993 269.078 70.554c74.203-40.384 157.653-61.794 242.56-61.794h0.243c279.539 0 507.26 227.716 507.503 507.499 0 135.511-52.796 262.994-148.651 358.849z" />
<glyph unicode="&#xe901;" d="M870.733 811.107c-95.855 95.856-223.095 148.649-358.852 148.893-279.783 0-507.258-227.718-507.501-507.255 0-89.532 23.356-176.627 67.634-253.751l-72.014-262.993 269.078 70.554c74.203-40.384 157.653-61.794 242.56-61.794h0.243c279.539 0 507.26 227.716 507.503 507.499 0 135.511-52.796 262.994-148.651 358.849zM511.881 30.396c-75.908 0-150.109 20.437-214.825 58.876l-15.327 9.246-159.598-41.847 42.575 155.703-9.975 16.060c-42.333 67.149-64.472 144.755-64.472 224.311 0 232.583 189.279 421.618 421.864 421.618 112.644 0 218.475-44.035 298.274-123.59 79.552-79.799 123.345-185.629 123.345-298.271-0.243-232.828-189.521-422.106-421.862-422.106zM743.249 346.428c-12.651 6.323-74.935 36.979-86.613 41.357-11.678 4.139-20.19 6.327-28.463-6.323-8.516-12.651-32.845-41.361-40.141-49.63-7.3-8.516-14.844-9.489-27.494-3.166-12.651 6.327-53.521 19.708-101.939 63.014-37.708 33.574-63.010 75.174-70.552 87.825-7.299 12.651-0.73 19.465 5.596 25.788 5.596 5.598 12.651 14.844 18.976 22.14 6.326 7.3 8.515 12.652 12.651 21.167s2.191 15.814-0.973 22.139c-3.162 6.326-28.465 68.851-39.169 94.153-10.218 24.815-20.68 21.409-28.465 21.653-7.299 0.486-15.814 0.486-24.329 0.486s-22.139-3.163-33.817-15.814c-11.678-12.651-44.279-43.305-44.279-105.83s45.495-122.618 51.821-131.134c6.325-8.512 89.287-136.482 216.528-191.467 30.165-13.137 53.769-20.924 72.256-26.761 30.413-9.732 57.903-8.273 79.799-5.111 24.329 3.652 74.931 30.656 85.636 60.335 10.462 29.683 10.462 54.985 7.3 60.339-3.162 5.35-11.678 8.512-24.329 14.839z" />
<glyph unicode="&#xe902;" d="M512 960c282.77 0 512-229.23 512-512s-229.23-512-512-512c-282.77 0-512 229.23-512 512s229.23 512 512 512z" />
<glyph unicode="&#xe903;" d="M480.969 764.509c0 13.703 11.123 24.824 24.823 24.824 191.595 0 347.541-155.896 347.541-347.541 0-13.7-11.123-24.823-24.823-24.823-13.705 0-24.823 11.123-24.823 24.823 0 164.289-133.606 297.893-297.894 297.893-13.7 0-24.823 11.121-24.823 24.824z" />
<glyph unicode="&#xe904;" d="M574.43 319.040c54.822-26.79 114.291-40.375 176.725-40.375 11.866 0 21.5-9.634 21.5-21.5v-128.998c0-11.87-9.634-21.5-21.5-21.5-320.085 0-580.489 260.403-580.489 580.488 0 11.868 9.632 21.5 21.5 21.5h128.997c11.868 0 21.5-9.632 21.5-21.5 0-62.435 13.588-121.903 40.376-176.725 2.537-5.163 2.881-11.093 1.032-16.469-1.892-5.419-5.805-9.847-10.964-12.343l-69.917-33.882c48.761-87.458 121.171-159.829 208.631-208.631l33.796 69.961c2.496 5.116 6.925 9.071 12.343 10.965 5.376 1.89 11.307 1.591 16.469-0.99z" />
<glyph unicode="&#xe905;" d="M605.090 441.792c0 54.763-44.535 99.299-99.298 99.299-13.7 0-24.823 11.121-24.823 24.824s11.123 24.824 24.823 24.824c82.121 0 148.949-66.827 148.949-148.947 0-13.7-11.123-24.823-24.828-24.823-13.7 0-24.823 11.123-24.823 24.823z" />
<glyph unicode="&#xe906;" d="M505.792 640.388c109.525 0 198.596-89.069 198.596-198.596 0-13.7 11.119-24.823 24.823-24.823s24.823 11.123 24.823 24.823c0 136.883-111.36 248.244-248.243 248.244-13.7 0-24.823-11.121-24.823-24.824s11.123-24.824 24.823-24.824z" />
<glyph unicode="&#xe907;" glyph-name="phone-sms" d="M512 960c282.77 0 512-229.23 512-512s-229.23-512-512-512c-282.77 0-512 229.23-512 512s229.23 512 512 512zM633.903 190.985c-58.999 0-115.2 12.838-167.006 38.157-4.877 2.436-10.487 2.722-15.565 0.934-5.12-1.788-9.306-5.525-11.661-10.364l-31.941-66.112c-82.651 46.123-151.081 114.509-197.161 197.163l66.072 32.017c4.876 2.359 8.574 6.545 10.362 11.665 1.747 5.077 1.422 10.684-0.975 15.561-25.315 51.81-38.156 108.011-38.156 167.011 0 11.215-9.102 20.317-20.317 20.317h-121.905c-11.215 0-20.317-9.102-20.317-20.317 0-302.486 246.085-548.57 548.57-548.57 11.217 0 20.318 9.101 20.318 20.318v121.903c0 11.217-9.101 20.318-20.318 20.318zM699.797 300.382c-8.67-3.486-18.654-1.557-25.289 4.881l-86.012 83.477h-83.2c-90.409 0-163.964 70.711-163.964 157.63 0 86.917 73.555 157.629 163.964 157.629h185.621c89.553 0 162.415-70.713 162.415-157.629 0-79.273-60.608-145.065-139.213-156.026v-69.158c0-9.109-5.653-17.318-14.323-20.804zM654.955 544c0-17.673 14.323-32 32-32 17.673 0 32 14.327 32 32s-14.327 32-32 32c-17.677 0-32-14.327-32-32zM594.142 512c-17.673 0-32 14.327-32 32s14.327 32 32 32c17.673 0 32-14.327 32-32s-14.327-32-32-32zM469.333 544c0-17.673 14.327-32 32-32s32 14.327 32 32c0 17.673-14.327 32-32 32s-32-14.327-32-32z" />
<glyph unicode="&#xe908;" glyph-name="messenger" d="M512 960c-288.425 0-512-211.272-512-496.64 0-149.265 61.174-278.251 160.797-367.339 8.363-7.488 13.411-17.971 13.754-29.197l2.788-91.072c0.891-29.052 30.898-47.953 57.481-36.22l101.625 44.86c8.615 3.802 18.268 4.506 27.346 2.010 46.7-12.843 96.403-19.682 148.209-19.682 288.427 0 512 211.273 512 496.64s-223.573 496.64-512 496.64zM204.552 318.123l150.4 238.612c23.924 37.96 75.154 47.411 111.049 20.49l119.62-89.716c10.978-8.235 26.078-8.188 37.009 0.107l161.553 122.607c21.564 16.364 49.707-9.441 35.277-32.341l-150.4-238.614c-23.923-37.956-75.153-47.411-111.049-20.489l-119.625 89.719c-10.974 8.23-26.076 8.183-37.004-0.111l-161.554-122.607c-21.562-16.363-49.71 9.442-35.277 32.341z" />
<glyph unicode="&#xe909;" d="M512 960c282.77 0 512-229.23 512-512s-229.23-512-512-512c-282.77 0-512 229.23-512 512s229.23 512 512 512z" />
<glyph unicode="&#xe90a;" d="M774.562 132.924v318.805c45.171 11.742 78.771 52.506 78.771 101.297s-33.6 89.554-78.771 101.297v108.754c0 14.5-11.755 26.256-26.253 26.256-14.502 0-26.257-11.756-26.257-26.256v-108.754c-45.167-11.743-78.771-52.506-78.771-101.297s33.604-89.555 78.771-101.297v-318.805c0-14.502 11.755-26.257 26.257-26.257 14.498 0 26.253 11.755 26.253 26.257zM695.795 553.026c0 28.961 23.552 52.513 52.514 52.513 28.958 0 52.51-23.552 52.51-52.513s-23.552-52.512-52.51-52.512c-28.962 0-52.514 23.552-52.514 52.512zM538.257 132.924v108.753c45.167 11.742 78.767 52.506 78.767 101.299 0 48.789-33.6 89.553-78.767 101.295v318.806c0 14.5-11.759 26.256-26.257 26.256s-26.257-11.756-26.257-26.256v-318.806c-45.167-11.742-78.769-52.506-78.769-101.295 0-48.794 33.602-89.557 78.769-101.299v-108.753c0-14.502 11.759-26.257 26.257-26.257s26.257 11.755 26.257 26.257zM459.486 342.976c0 28.958 23.552 52.51 52.514 52.51s52.514-23.552 52.514-52.51c0-28.962-23.552-52.514-52.514-52.514s-52.514 23.552-52.514 52.514zM301.949 132.924v318.805c45.168 11.742 78.769 52.506 78.769 101.297s-33.602 89.554-78.769 101.297v108.754c0 14.5-11.756 26.256-26.256 26.256s-26.257-11.756-26.257-26.256v-108.754c-45.167-11.743-78.769-52.506-78.769-101.297s33.602-89.555 78.769-101.297v-318.805c0-14.502 11.756-26.257 26.257-26.257s26.256 11.755 26.256 26.257zM223.18 553.026c0 28.961 23.552 52.513 52.513 52.513s52.513-23.552 52.513-52.513c0-28.96-23.552-52.512-52.513-52.512s-52.513 23.552-52.513 52.512z" />
<glyph unicode="&#xe90b;" d="M512 960c282.77 0 512-229.23 512-512s-229.23-512-512-512c-282.77 0-512 229.23-512 512s229.23 512 512 512z" />
<glyph unicode="&#xe90c;" d="M614.464 44.382c-8.67-3.486-18.654-1.557-25.289 4.881l-86.012 83.477h-83.2c-90.409 0-163.964 70.711-163.964 157.632 0 86.916 73.555 157.628 163.964 157.628h185.621c89.553 0 162.415-70.711 162.415-157.628 0-79.275-60.608-145.067-139.213-156.028v-69.158c0-9.109-5.653-17.318-14.323-20.804zM569.621 288c0-17.673 14.323-32 32-32 17.673 0 32 14.327 32 32s-14.327 32-32 32c-17.677 0-32-14.327-32-32zM508.809 256c-17.673 0-32 14.327-32 32s14.327 32 32 32c17.673 0 32-14.327 32-32s-14.327-32-32-32zM384 288c0-17.673 14.327-32 32-32s32 14.327 32 32c0 17.673-14.327 32-32 32s-32-14.327-32-32z" />
<glyph unicode="&#xe90d;" d="M725.333 763.778v-8.294l-203.652-106.333c-5.986-3.097-13.376-3.097-19.426 0.032l-203.588 106.301v8.294c0 14.063 11.492 25.556 25.556 25.556h375.554c14.063 0 25.557-11.492 25.557-25.556z" />
<glyph unicode="&#xe90e;" d="M725.333 715.374l-187.255-97.772c-16.294-8.428-35.861-8.428-52.215 0.032l-187.196 97.74v-177.774c0-14.063 11.492-25.6 25.556-25.6h375.554c14.063 0 25.557 11.537 25.557 25.6v177.774z" />
<glyph unicode="&#xe90f;" d="M512 960c282.77 0 512-229.23 512-512s-229.23-512-512-512c-282.77 0-512 229.23-512 512s229.23 512 512 512z" />
<glyph unicode="&#xe910;" d="M853.333 620.445v-13.27l-325.841-170.131c-9.579-4.954-21.406-4.954-31.083 0.051l-325.743 170.080v13.27c0 22.501 18.388 40.889 40.889 40.889h600.89c22.498 0 40.887-18.388 40.887-40.889z" />
<glyph unicode="&#xe911;" d="M853.333 542.998l-299.61-156.433c-26.065-13.487-57.382-13.487-83.546 0.051l-299.511 156.382v-286.998c0-22.502 18.388-42.667 40.889-42.667h600.89c22.498 0 40.887 20.164 40.887 42.667v286.998z" />
<glyph unicode="&#xe912;" d="M512 960c282.77 0 512-229.23 512-512s-229.23-512-512-512c-282.77 0-512 229.23-512 512s229.23 512 512 512z" />
<glyph unicode="&#xe913;" d="M633.903 190.985c-58.999 0-115.2 12.838-167.006 38.157-4.877 2.436-10.487 2.722-15.565 0.934-5.12-1.788-9.306-5.525-11.661-10.364l-31.941-66.112c-82.651 46.123-151.081 114.509-197.161 197.163l66.072 32.017c4.876 2.359 8.574 6.545 10.362 11.665 1.747 5.077 1.422 10.684-0.975 15.561-25.315 51.81-38.156 108.011-38.156 167.011 0 11.215-9.102 20.317-20.317 20.317h-121.905c-11.215 0-20.317-9.102-20.317-20.317 0-302.486 246.085-548.57 548.57-548.57 11.217 0 20.318 9.101 20.318 20.318v121.903c0 11.217-9.101 20.318-20.318 20.318z" />
<glyph unicode="&#xe914;" d="M810.718 154.317c-7.223-2.906-15.543-1.297-21.073 4.066l-71.676 69.568h-69.333c-75.341 0-136.636 58.927-136.636 131.358s61.295 131.358 136.636 131.358h154.684c74.628 0 135.347-58.927 135.347-131.358 0-66.061-50.509-120.887-116.011-130.022v-57.63c0-7.59-4.715-14.434-11.938-17.34zM773.35 357.333c0-14.729 11.938-26.667 26.667-26.667s26.667 11.938 26.667 26.667c0 14.729-11.938 26.667-26.667 26.667s-26.667-11.938-26.667-26.667zM722.675 330.667c-14.729 0-26.667 11.938-26.667 26.667s11.938 26.667 26.667 26.667c14.729 0 26.667-11.938 26.667-26.667s-11.938-26.667-26.667-26.667zM618.667 357.333c0-14.729 11.938-26.667 26.667-26.667s26.667 11.938 26.667 26.667c0 14.729-11.938 26.667-26.667 26.667s-26.667-11.938-26.667-26.667z" />
<glyph unicode="&#xe915;" d="M746.667 806.444v-8.294l-203.652-106.333c-5.986-3.097-13.376-3.097-19.426 0.032l-203.588 106.301v8.294c0 14.063 11.492 25.556 25.556 25.556h375.554c14.063 0 25.557-11.492 25.557-25.556z" />
<glyph unicode="&#xe916;" d="M746.667 758.040l-187.255-97.772c-16.294-8.428-35.861-8.428-52.215 0.032l-187.196 97.74v-177.774c0-14.063 11.492-25.6 25.556-25.6h375.554c14.063 0 25.557 11.537 25.557 25.6v177.774z" />
<glyph unicode="&#xe917;" d="M512 960c282.77 0 512-229.23 512-512s-229.23-512-512-512c-282.77 0-512 229.23-512 512s229.23 512 512 512z" />
<glyph unicode="&#xe918;" d="M633.903 190.985c-58.999 0-115.2 12.838-167.006 38.157-4.877 2.436-10.487 2.722-15.565 0.934-5.12-1.788-9.306-5.525-11.661-10.364l-31.941-66.112c-82.651 46.123-151.081 114.509-197.161 197.163l66.072 32.017c4.876 2.359 8.574 6.545 10.362 11.665 1.747 5.077 1.422 10.684-0.975 15.561-25.315 51.81-38.156 108.011-38.156 167.011 0 11.215-9.102 20.317-20.317 20.317h-121.905c-11.215 0-20.317-9.102-20.317-20.317 0-302.486 246.085-548.57 548.57-548.57 11.217 0 20.318 9.101 20.318 20.318v121.903c0 11.217-9.101 20.318-20.318 20.318z" />
<glyph unicode="&#xe919;" d="M871.113 675.889v-9.123l-224.017-116.966c-6.583-3.406-14.716-3.406-21.367 0.035l-223.949 116.931v9.123c0 15.469 12.642 28.111 28.109 28.111h413.111c15.471 0 28.113-12.642 28.113-28.111z" />
<glyph unicode="&#xe91a;" d="M871.113 622.644l-205.982-107.547c-17.92-9.271-39.45-9.271-57.438 0.034l-205.914 107.512v-190.384c0-15.471 12.642-28.113 28.109-28.113h413.111c15.471 0 28.113 12.642 28.113 28.113v190.384z" />
<glyph unicode="&#xe91b;" d="M512 960c282.77 0 512-229.23 512-512s-229.23-512-512-512c-282.77 0-512 229.23-512 512s229.23 512 512 512z" />
<glyph unicode="&#xe91c;" d="M480.969 764.509c0 13.703 11.123 24.824 24.823 24.824 191.595 0 347.541-155.896 347.541-347.541 0-13.7-11.123-24.823-24.823-24.823-13.705 0-24.823 11.123-24.823 24.823 0 164.289-133.606 297.893-297.894 297.893-13.7 0-24.823 11.121-24.823 24.824z" />
<glyph unicode="&#xe91d;" d="M574.43 319.040c54.822-26.79 114.291-40.375 176.725-40.375 11.866 0 21.5-9.634 21.5-21.5v-128.998c0-11.87-9.634-21.5-21.5-21.5-320.085 0-580.489 260.403-580.489 580.488 0 11.868 9.632 21.5 21.5 21.5h128.997c11.868 0 21.5-9.632 21.5-21.5 0-62.435 13.588-121.903 40.376-176.725 2.537-5.163 2.881-11.093 1.032-16.469-1.892-5.419-5.805-9.847-10.964-12.343l-69.917-33.882c48.761-87.458 121.171-159.829 208.631-208.631l33.796 69.961c2.496 5.116 6.925 9.071 12.343 10.965 5.376 1.89 11.307 1.591 16.469-0.99z" />
<glyph unicode="&#xe91e;" d="M605.090 441.792c0 54.763-44.535 99.299-99.298 99.299-13.7 0-24.823 11.121-24.823 24.824s11.123 24.824 24.823 24.824c82.121 0 148.949-66.827 148.949-148.947 0-13.7-11.123-24.823-24.828-24.823-13.7 0-24.823 11.123-24.823 24.823z" />
<glyph unicode="&#xe91f;" d="M505.792 640.388c109.525 0 198.596-89.069 198.596-198.596 0-13.7 11.119-24.823 24.823-24.823s24.823 11.123 24.823 24.823c0 136.883-111.36 248.244-248.243 248.244-13.7 0-24.823-11.121-24.823-24.824s11.123-24.824 24.823-24.824z" />
<glyph unicode="&#xe920;" d="M512 960c282.77 0 512-229.23 512-512s-229.23-512-512-512c-282.77 0-512 229.23-512 512s229.23 512 512 512z" />
<glyph unicode="&#xe921;" d="M633.903 190.985c-58.999 0-115.2 12.838-167.006 38.157-4.877 2.436-10.487 2.722-15.565 0.934-5.12-1.788-9.306-5.525-11.661-10.364l-31.941-66.112c-82.651 46.123-151.081 114.509-197.161 197.163l66.072 32.017c4.876 2.359 8.574 6.545 10.362 11.665 1.747 5.077 1.422 10.684-0.975 15.561-25.315 51.81-38.156 108.011-38.156 167.011 0 11.215-9.102 20.317-20.317 20.317h-121.905c-11.215 0-20.317-9.102-20.317-20.317 0-302.486 246.085-548.57 548.57-548.57 11.217 0 20.318 9.101 20.318 20.318v121.903c0 11.217-9.101 20.318-20.318 20.318z" />
<glyph unicode="&#xe922;" d="M427.426 432.546c67.819 0 108.331 33.549 108.331 86.199v0.179c0 41.582-24.986 63.533-79.774 74.241l-26.594 5.175c-27.839 5.533-39.618 13.564-39.618 28.198v0.178c0 15.348 13.92 25.878 37.476 25.878 23.74 0 39.799-10.708 42.479-26.77l0.354-2.141h60.681l-0.179 2.141c-3.925 45.51-39.083 78.169-103.689 78.169-59.252 0-102.085-32.481-102.263-82.988v-0.178c0-40.155 23.558-65.855 77.991-76.384l26.593-5.175c30.161-5.89 41.583-12.672 41.583-27.128v-0.179c0-16.418-16.777-28.019-42.3-28.019-26.412 0-44.081 11.422-45.865 27.307l-0.179 1.604h-62.464l0.178-3.209c2.677-47.829 43.011-77.099 107.258-77.099z" />
<glyph unicode="&#xe923;" d="M585.374 439.505h65.498v257.53h-65.498v-257.53z" />
<glyph unicode="&#xe924;" d="M711.727 439.505h65.498v75.49h45.333c57.643 0 94.767 35.338 94.767 90.485v0.357c0 55.147-37.124 91.197-94.767 91.197h-110.831v-257.53zM806.852 646.885c27.84 0 44.258-14.278 44.258-41.048v-0.357c0-26.77-16.418-41.226-44.258-41.226h-29.628v82.631h29.628z" />
<glyph unicode="&#xe925;" d="M512 960c282.77 0 512-229.23 512-512s-229.23-512-512-512c-282.77 0-512 229.23-512 512s229.23 512 512 512z" />
<glyph unicode="&#xe926;" d="M648.614 123.174c-11.558-4.646-24.866-2.078-33.715 6.507l-114.684 111.309h-110.93c-120.545 0-218.618 94.281-218.618 210.172 0 115.888 98.073 210.172 218.618 210.172h247.494c119.407 0 216.555-94.284 216.555-210.172 0-105.698-80.811-193.421-185.621-208.034v-92.211c0-12.147-7.535-23.091-19.098-27.742zM588.826 448c0-23.565 19.102-42.667 42.667-42.667s42.667 19.102 42.667 42.667c0 23.565-19.102 42.667-42.667 42.667s-42.667-19.102-42.667-42.667zM507.746 405.333c-23.565 0-42.667 19.102-42.667 42.667s19.102 42.667 42.667 42.667c23.565 0 42.667-19.102 42.667-42.667s-19.102-42.667-42.667-42.667zM341.333 448c0-23.565 19.103-42.667 42.667-42.667s42.667 19.102 42.667 42.667c0 23.565-19.103 42.667-42.667 42.667s-42.667-19.102-42.667-42.667z" />
<glyph unicode="&#xe927;" d="M512-64c282.769 0 512 229.231 512 512s-229.231 512-512 512c-282.77 0-512-229.23-512-512s229.23-512 512-512z" />
<glyph unicode="&#xe928;" d="M418.304 177.92c227.072 0 351.232 188.16 351.232 351.232 0 5.376 0 10.752-0.256 15.872 24.064 17.408 45.056 39.168 61.696 64-22.016-9.728-45.824-16.384-70.912-19.456 25.6 15.36 45.056 39.424 54.272 68.352-23.808-14.080-50.176-24.32-78.336-29.952-22.528 24.064-54.528 38.912-90.112 38.912-68.096 0-123.392-55.296-123.392-123.392 0-9.728 1.024-19.2 3.328-28.16-102.656 5.12-193.536 54.272-254.464 129.024-10.496-18.176-16.64-39.424-16.64-61.952 0-42.752 21.76-80.64 55.040-102.656-20.224 0.512-39.168 6.144-55.808 15.36 0-0.512 0-1.024 0-1.536 0-59.904 42.496-109.568 99.072-121.088-10.24-2.816-21.248-4.352-32.512-4.352-7.936 0-15.616 0.768-23.296 2.304 15.616-49.152 61.184-84.736 115.2-85.76-42.24-33.024-95.488-52.736-153.344-52.736-9.984 0-19.712 0.512-29.44 1.792 54.016-35.328 119.040-55.808 188.672-55.808z" />
<glyph unicode="&#xe929;" d="M870.733 811.107c-95.855 95.856-223.095 148.649-358.852 148.893-279.783 0-507.258-227.718-507.501-507.255 0-89.532 23.356-176.627 67.634-253.751l-72.014-262.993 269.078 70.554c74.203-40.384 157.653-61.794 242.56-61.794h0.243c279.539 0 507.26 227.716 507.503 507.499 0 135.511-52.796 262.994-148.651 358.849z" />
<glyph unicode="&#xe92a;" d="M870.733 811.107c-95.855 95.856-223.095 148.649-358.852 148.893-279.783 0-507.258-227.718-507.501-507.255 0-89.532 23.356-176.627 67.634-253.751l-72.014-262.993 269.078 70.554c74.203-40.384 157.653-61.794 242.56-61.794h0.243c279.539 0 507.26 227.716 507.503 507.499 0 135.511-52.796 262.994-148.651 358.849zM511.881 30.396c-75.908 0-150.109 20.437-214.825 58.876l-15.327 9.246-159.598-41.847 42.575 155.703-9.975 16.060c-42.333 67.149-64.472 144.755-64.472 224.311 0 232.583 189.279 421.618 421.864 421.618 112.644 0 218.475-44.035 298.274-123.59 79.552-79.799 123.345-185.629 123.345-298.271-0.243-232.828-189.521-422.106-421.862-422.106zM743.249 346.428c-12.651 6.323-74.935 36.979-86.613 41.357-11.678 4.139-20.19 6.327-28.463-6.323-8.516-12.651-32.845-41.361-40.141-49.63-7.3-8.516-14.844-9.489-27.494-3.166-12.651 6.327-53.521 19.708-101.939 63.014-37.708 33.574-63.010 75.174-70.552 87.825-7.299 12.651-0.73 19.465 5.596 25.788 5.596 5.598 12.651 14.844 18.976 22.14 6.326 7.3 8.515 12.652 12.651 21.167s2.191 15.814-0.973 22.139c-3.162 6.326-28.465 68.851-39.169 94.153-10.218 24.815-20.68 21.409-28.465 21.653-7.299 0.486-15.814 0.486-24.329 0.486s-22.139-3.163-33.817-15.814c-11.678-12.651-44.279-43.305-44.279-105.83s45.495-122.618 51.821-131.134c6.325-8.512 89.287-136.482 216.528-191.467 30.165-13.137 53.769-20.924 72.256-26.761 30.413-9.732 57.903-8.273 79.799-5.111 24.329 3.652 74.931 30.656 85.636 60.335 10.462 29.683 10.462 54.985 7.3 60.339-3.162 5.35-11.678 8.512-24.329 14.839z" />
<glyph unicode="&#xe92b;" glyph-name="agent" d="M585.634 377.621c0.678-4.531 1.033-9.169 1.033-13.888 0-51.251-41.549-92.8-92.8-92.8-39.765 0-73.691 25.011-86.899 60.164-33.786 11.285-63.554 30.656-86.724 55.659-85.555-41.801-149.577-116.557-149.577-224.832v-15.838c0-21.769 17.451-39.42 38.976-39.42h604.715c21.525 0 38.976 17.651 38.976 39.42v15.838c0 137.498-103.236 220.937-222.711 251.486-13.44-14.238-28.57-26.321-44.988-35.789zM571.678 422.391c50.436 28.425 85.299 89.387 85.299 160.008 0 97.791-66.859 177.067-149.333 177.067s-149.331-79.276-149.331-177.067c0-62.216 27.063-116.94 67.993-148.518 17.364 17.301 41.312 27.998 67.761 27.998 31.893 0 60.156-15.552 77.611-39.488zM204.8 617.609c0 18.851 15.282 34.133 34.133 34.133h72.529v-170.663h-72.529c-18.851 0-34.133 15.283-34.133 34.133v102.396zM319.136 584.533c0 115.787 86.232 206.222 188.508 206.222 151.949 0 232.162-170.382 165.619-309.676h78.929c18.85 0 34.133 15.283 34.133 34.133v102.395c0 18.852-15.283 34.134-34.133 34.134h-22.788c-27.081 103.043-114.91 180.258-221.76 180.258-129.079 0-230.399-112.688-230.399-247.467s101.32-247.467 230.399-247.467v41.246c-102.276 0-188.508 90.432-188.508 206.221zM545.265 363.75c0-29.454-23.877-53.332-53.332-53.332s-53.332 23.877-53.332 53.332c0 29.454 23.877 53.332 53.332 53.332s53.332-23.877 53.332-53.332z" />
</font>
</defs>
</svg>
