<svg width="150" height="27" viewBox="0 0 150 27" fill="none" xmlns="http://www.w3.org/2000/svg">
<path fill-rule="evenodd" clip-rule="evenodd" d="M132.688 3.8172C132.688 4.33561 132.792 4.82988 132.979 5.28054C126.608 6.28043 121.828 10.4688 121.828 15.4839C121.828 16.834 122.174 18.1242 122.805 19.3084C122.799 19.1634 122.796 19.0175 122.796 18.871C122.796 13.3184 127.297 8.8172 132.849 8.8172C135.729 8.8172 138.326 10.0277 140.158 11.9676C140.472 11.1941 140.645 10.3484 140.645 9.46237C140.645 9.168 140.626 8.87809 140.589 8.59381C142.847 9.66173 144.409 11.9603 144.409 14.6237C144.409 16.2248 143.844 17.694 142.903 18.8434C142.896 16.1811 141.854 13.7621 140.159 11.9674C139.859 12.7058 139.431 13.3783 138.902 13.9572C139.992 15.2981 140.645 17.0083 140.645 18.871C140.645 19.5115 140.568 20.1339 140.422 20.7296C141.392 20.3033 142.241 19.6528 142.903 18.8438L142.903 18.871C142.903 21.333 142.018 23.5883 140.549 25.3361C146.052 23.917 150 20.0418 150 15.4839C150 10.7593 145.758 6.76835 139.939 5.48589C139.32 6.75786 138.015 7.63441 136.505 7.63441C134.916 7.63441 133.553 6.66255 132.979 5.28054C133.925 5.13194 134.907 5.05376 135.914 5.05376C137.313 5.05376 138.664 5.20474 139.939 5.48589C140.185 4.98179 140.323 4.41557 140.323 3.8172C140.323 1.70902 138.614 0 136.505 0C134.397 0 132.688 1.70902 132.688 3.8172ZM133.978 16.129C135.928 16.129 137.683 15.2918 138.902 13.9573C137.473 12.1988 135.292 11.0753 132.849 11.0753C128.544 11.0753 125.054 14.5655 125.054 18.871C125.054 23.1764 128.544 26.6667 132.849 26.6667C136.514 26.6667 139.589 24.1377 140.422 20.7296C139.602 21.0902 138.695 21.2903 137.742 21.2903C134.354 21.2903 131.557 18.7637 131.131 15.4922C131.995 15.9006 132.96 16.129 133.978 16.129Z" fill="white"/>
<path fill-rule="evenodd" clip-rule="evenodd" d="M14.5964 21.8817H11.7937L10.3139 18.277H4.36099L2.93722 21.8817H0.0672646L7.35426 5.26882L14.5964 21.8817ZM51.9507 5.31368H54.5067C54.5067 5.31368 54.574 12.6479 54.5067 15.9898C54.4619 18.1654 55.8969 19.0401 57.3991 19.2644C58.2511 19.399 59.1031 19.2869 59.9327 18.928C61.0987 18.4121 61.6592 17.4925 61.6592 16.2141V5.26882C62.4664 5.26882 64.3049 5.29125 64.3049 5.29125C64.3049 5.29125 64.2601 13.1638 64.3049 15.788C64.417 20.3186 60.8072 22.068 57.6457 21.8662C55.8744 21.754 54.3274 21.1484 53.139 19.8027C52.3767 18.928 51.9507 17.8738 51.9507 16.7075C51.9282 13.0068 51.9507 5.31368 51.9507 5.31368ZM78.4753 7.55561V5.26882H68.565V21.8817H78.4753V19.5501H71.0987V14.3487H77.1749V11.9947H71.0987V7.55561H78.4753ZM112.063 15.8957L101.682 5.26882V21.8817H104.238V11.2324L114.709 21.8817V5.26882H112.063V15.8957ZM89.3946 21.8816C94.2377 21.904 97.7354 18.0255 97.7578 13.6089C97.7803 9.03536 94.0807 5.29134 89.5291 5.26892C84.9552 5.2465 81.2108 8.90085 81.0762 13.295C80.9417 17.5771 84.2825 21.8592 89.3946 21.8816ZM89.4395 7.86956C86.3004 7.86956 83.6771 10.4254 83.6771 13.5192C83.6547 16.7028 86.2332 19.3034 89.3946 19.3258C92.5336 19.3482 95.1569 16.7476 95.1569 13.6313C95.1794 10.4702 92.5785 7.86956 89.4395 7.86956ZM40.0398 21.8816C41.4479 21.8881 42.7423 21.5649 43.8707 20.9945L44.9898 22.4797L46.8791 21.056L45.8051 19.6308C47.4227 18.0955 48.3912 15.9263 48.403 13.6089C48.4254 9.03536 44.7259 5.29134 40.1743 5.26892C35.6003 5.2465 31.8559 8.90085 31.7214 13.295C31.5869 17.5771 34.9277 21.8592 40.0398 21.8816ZM40.0398 19.3258C40.8291 19.3315 41.5857 19.1713 42.2763 18.8787L41.2366 17.4989L43.1258 16.0753L44.2217 17.5296C45.1976 16.5044 45.8021 15.1273 45.8021 13.6313C45.8245 10.4702 43.2236 7.86956 40.0846 7.86956C36.9456 7.86956 34.3223 10.4254 34.3223 13.5192C34.2999 16.7028 36.8783 19.3034 40.0398 19.3258ZM16.1435 15.1229C16.8606 19.3427 20.3607 21.9363 24.2747 21.8809C25.3989 21.8976 27.4749 21.5674 28.6831 20.6135V17.4171C28.4981 17.6369 28.3149 17.7727 28.1306 17.9093C28.0737 17.9515 28.0168 17.9937 27.9596 18.0385C26.1659 19.3217 24.2601 19.6369 22.2422 18.849C20.9641 18.3537 20 17.4532 19.3274 16.26C18.8514 15.4078 18.614 14.488 18.6003 13.5753C18.614 12.6626 18.8514 11.7427 19.3274 10.8905C20 9.69735 20.9641 8.79685 22.2422 8.30157C24.2601 7.51364 26.1659 7.82881 27.9596 9.11202C27.9596 9.10236 28.4411 9.47648 28.6831 9.76409V6.53701C27.2572 5.60196 25.3989 5.25293 24.2747 5.26969C20.3607 5.21429 16.8606 7.80782 16.1435 12.0277C16.0778 12.4068 16.0366 12.7825 16.0187 13.1566C16.0121 13.2969 16.0088 13.4365 16.0089 13.6237C16.0095 13.7488 16.0129 13.8734 16.0189 13.9972C16.0366 14.368 16.0778 14.7437 16.1435 15.1229ZM7.33184 10.8885L9.3722 15.9709H5.3139L7.33184 10.8885Z" fill="white"/>
</svg>
