<svg width="22" height="23" viewBox="0 0 22 23" fill="none" xmlns="http://www.w3.org/2000/svg">
<path fill-rule="evenodd" clip-rule="evenodd" d="M3.54583 0.0551685H14.5214C15.9451 0.0551685 18.0576 -0.222132 18.9028 0.466667C19.4637 0.924162 21.0205 3.0666 21.211 3.86274C21.227 6.72699 21.2427 9.59165 21.2579 12.4567C21.2579 15.3813 21.83 21.2782 20.316 22.4884C19.401 23.2213 17.2417 22.9517 15.6995 22.951H5.14893C3.13436 22.951 1.43805 23.1184 0.673722 21.7677C0.0219301 20.6175 0.344311 16.9633 0.344311 15.1295C0.359551 11.3729 0.375182 7.6162 0.391204 3.85954C0.715341 2.51517 2.4644 0.679432 3.54583 0.0551685ZM3.73398 1.3414L2.83894 2.57651V2.62762H18.7621L18.7146 2.47363L17.6783 1.3414H3.73456H3.73398ZM8.4917 8.95716V11.4791L4.44087 11.5303L10.7999 18.4777L17.1596 11.582V11.5303L17.1127 11.4791H13.1082V8.95716H8.4917Z" fill="#FD7B38"/>
</svg>
