<svg width="24" height="24" viewBox="0 0 24 24" fill="none" xmlns="http://www.w3.org/2000/svg">
<path fill-rule="evenodd" clip-rule="evenodd" d="M3.64154 0.00793892C3.79696 -0.0137488 3.9553 0.00921631 4.09817 0.0741616C4.24104 0.139107 4.36253 0.243356 4.44843 0.374744C4.61395 0.652952 4.65533 3.65859 4.49808 4.0432C4.44087 4.1642 4.35532 4.2696 4.2487 4.35046C4.14209 4.43133 4.01756 4.48527 3.88567 4.50771C3.71666 4.52644 3.54619 4.48862 3.40095 4.40016C3.2557 4.31169 3.14385 4.17758 3.08287 4.01878C2.97096 2.82257 2.9793 1.61814 3.10772 0.423594C3.23476 0.229743 3.42252 0.0835515 3.64154 0.00793892ZM15.6086 0.00793892C15.7602 -0.0105475 15.914 0.014049 16.0523 0.0789184C16.1906 0.143788 16.3079 0.24631 16.3907 0.374744C16.5562 0.653366 16.5934 3.65818 16.4362 4.0432C16.3805 4.16445 16.2959 4.2702 16.1898 4.35117C16.0838 4.43215 15.9595 4.4859 15.8279 4.50771C15.6586 4.52858 15.4872 4.49166 15.3415 4.40292C15.1958 4.31418 15.0844 4.17882 15.0252 4.01878C14.9112 2.82266 14.9195 1.61802 15.05 0.423594C15.1782 0.220517 15.3773 0.0723745 15.6086 0.00793892ZM19.4611 10.4995H17.9714V7.49141L1.54769 7.51583V15.391C1.54769 15.8199 1.46906 17.8307 1.64699 17.9578L10.5147 17.9822V19.4726H3.47187C1.73391 19.4726 0.409725 19.5918 0.0869611 18.1764L0.0621593 8.1004C0.0621593 7.11177 -0.128197 4.747 0.157325 4.04072C0.330398 3.63844 0.643426 3.31264 1.03837 3.12375C1.43331 2.93486 1.88333 2.89572 2.30492 3.01358C2.26107 3.43045 2.28484 3.85167 2.37529 4.26096C2.46534 4.477 2.60257 4.67014 2.77691 4.82623C2.95125 4.98233 3.1583 5.09742 3.38286 5.16308C3.60743 5.22873 3.84382 5.24329 4.07474 5.20568C4.30565 5.16807 4.52525 5.07925 4.71741 4.94572C5.47052 4.37689 5.05674 3.95419 5.30088 2.98916L14.2431 3.01358C14.2005 3.43067 14.2256 3.85191 14.3175 4.26096C14.4023 4.4691 14.5308 4.65653 14.6944 4.81052C14.858 4.96452 15.0528 5.08146 15.2656 5.15338C15.4784 5.22531 15.7042 5.25053 15.9276 5.22734C16.151 5.20415 16.3668 5.1331 16.5604 5.019C16.8969 4.77848 17.1315 4.42089 17.2183 4.01629L17.2431 2.98916C18.2073 2.97674 18.8156 3.13489 19.1921 3.69834C19.5232 4.19514 19.4611 5.06123 19.4611 5.89916V10.4971V10.4995ZM6.03326 8.98347V11.9916H3.03321C3.04149 10.9889 3.04979 9.98617 3.05807 8.98347H6.03326ZM12.0003 8.98347L15.0003 9.00789V11.9916H12.0003V8.98347ZM7.51884 9.00789H10.5147V11.9916H7.51884V9.00789ZM17.5824 11.9916C21.8404 11.9266 25.3288 15.8786 23.5039 20.282C22.6267 22.4062 20.959 23.5377 18.3645 23.9748C17.3889 24.0723 16.406 23.8854 15.5341 23.4366C14.4653 22.9594 13.5598 22.1792 12.9295 21.1925C12.2991 20.2058 11.9716 19.056 11.9874 17.8851C12.0033 16.7142 12.3618 15.5736 13.0186 14.6044C13.6754 13.6352 14.6018 12.8798 15.6831 12.4317L16.9493 12.0649L17.5824 11.9916ZM6.03326 13.482V16.4901L3.03321 16.4657L3.05807 13.482H6.03326ZM17.7273 13.482L16.6307 13.6778C15.9859 13.8872 15.3957 14.2372 14.9027 14.7025C14.4096 15.1679 14.026 15.737 13.7796 16.3688C12.6624 19.2465 14.6652 21.704 16.8293 22.3114C17.2746 22.4638 17.7466 22.5222 18.2156 22.4828C20.0859 22.193 21.3935 21.382 22.0432 19.8903C23.4832 16.568 21.0542 13.4658 17.7273 13.4832V13.482ZM7.54364 13.5064H10.5147L10.4899 16.4901H7.54364V13.5064ZM17.9714 17.9818C18.5921 17.9698 20.2184 17.8443 20.6032 18.0799C20.7184 18.1604 20.8099 18.2704 20.8682 18.3984C20.9265 18.5263 20.9494 18.6676 20.9347 18.8074C20.9199 18.9472 20.8679 19.0806 20.7841 19.1935C20.7004 19.3064 20.5878 19.3947 20.4583 19.4494H16.9742C16.7649 19.361 16.5985 19.1941 16.5107 18.9845L16.4859 15.5607C16.5201 15.443 16.5792 15.334 16.6591 15.2412C16.7391 15.1483 16.838 15.0737 16.9493 15.0225C18.3066 14.5166 17.9921 16.9103 17.9714 17.983V17.9818Z" fill="#FD7B38"/>
</svg>
