<svg width="24" height="24" viewBox="0 0 24 24" fill="none" xmlns="http://www.w3.org/2000/svg">
<circle cx="12" cy="12" r="12" fill="white"/>
<path fill-rule="evenodd" clip-rule="evenodd" d="M12 1.59151C6.25155 1.59151 1.59151 6.25155 1.59151 12C1.59151 17.7484 6.25155 22.4085 12 22.4085C17.7484 22.4085 22.4085 17.7484 22.4085 12C22.4085 6.25155 17.7484 1.59151 12 1.59151ZM0 12C0 5.37258 5.37258 0 12 0C18.6274 0 24 5.37258 24 12C24 18.6274 18.6274 24 12 24C5.37258 24 0 18.6274 0 12Z" fill="#A0A3A1"/>
<path d="M17 12.5H7V11H17V12.5Z" fill="#A2A19C"/>
</svg>
