<svg width="48" height="48" viewBox="0 0 48 48" fill="none" xmlns="http://www.w3.org/2000/svg">
<path fill-rule="evenodd" clip-rule="evenodd" d="M23.9999 7.65002C14.97 7.65002 7.6499 14.9702 7.6499 24C7.6499 33.0299 14.97 40.35 23.9999 40.35C33.0298 40.35 40.3499 33.0299 40.3499 24C40.3499 14.9702 33.0298 7.65002 23.9999 7.65002ZM5.1499 24C5.1499 13.5895 13.5893 5.15002 23.9999 5.15002C34.4105 5.15002 42.8499 13.5895 42.8499 24C42.8499 34.4106 34.4105 42.85 23.9999 42.85C13.5893 42.85 5.1499 34.4106 5.1499 24Z" fill="#FD7B38"/>
<path d="M25.5999 30.4C25.5999 31.2837 24.8836 32 23.9999 32C23.1162 32 22.3999 31.2837 22.3999 30.4C22.3999 29.5164 23.1162 28.8 23.9999 28.8C24.8836 28.8 25.5999 29.5164 25.5999 30.4Z" fill="#FD7B38"/>
<path fill-rule="evenodd" clip-rule="evenodd" d="M24 14.75C24.6904 14.75 25.25 15.3096 25.25 16V25.6C25.25 26.2904 24.6904 26.85 24 26.85C23.3096 26.85 22.75 26.2904 22.75 25.6V16C22.75 15.3096 23.3096 14.75 24 14.75Z" fill="#FD7B38"/>
</svg>
