<svg width="24" height="24" viewBox="0 0 24 24" fill="none" xmlns="http://www.w3.org/2000/svg">
<path d="M18.27 12.915V16.8247C18.27 18.1863 17.1583 19.29 15.8111 19.29H6.95887C5.60087 19.29 4.5 18.1784 4.5 16.8311V7.97889C4.5 6.62089 5.60828 5.52002 6.96976 5.52002H14.1617" stroke="#A2A19C" stroke-width="1.5"/>
<path fill-rule="evenodd" clip-rule="evenodd" d="M9.67884 15.7862L9.32739 15.4347L9.88872 12.6281C9.92397 12.4529 10.0085 12.2951 10.1338 12.1698L16.9716 5.33203C17.3465 4.95651 17.8457 4.75 18.3768 4.75C19.4721 4.75 20.3635 5.64151 20.3635 6.73727C20.3635 7.26781 20.157 7.76701 19.7815 8.14253L12.9438 14.9797C12.8195 15.1045 12.6611 15.1896 12.486 15.2248L9.67884 15.7862Z" stroke="#A2A19C" stroke-width="1.5"/>
<path d="M15.4894 7.02753L17.7846 9.32275" stroke="#A2A19C" stroke-width="1.5"/>
</svg>
